<svg xmlns="http://www.w3.org/2000/svg" width="77" height="73" fill="none"><path fill="#83B3D3" d="M31.12 65.5h16.06V41.7H31.12v23.8Zm2.91-20.9h10.14v18H34.03v-18Z"/><path fill="#83B3D3" d="m74.4 39.8 2.1-2.1-9.94-9.9V.5H52.6v13.6L38.95.5 1.5 37.7l2.1 2.1 7.84-7.8v37.6H7.42v2.9h64.16v-2.9h-5.12V32l7.93 7.8ZM63.54 69.6h-49.2V29l24.6-24.4L63.55 29v40.6Zm0-44.7L55.62 17V3.4h7.93v21.5Z"/><path fill="#83B3D3" d="M31.32 27.6c0 4.3 3.51 7.7 7.73 7.7a7.8 7.8 0 0 0 7.83-7.7c0-4.3-3.51-7.7-7.83-7.7a7.72 7.72 0 0 0-7.73 7.7Zm7.83-5a5 5 0 0 1 5.02 4.9c0 2.7-2.2 4.9-5.02 4.9a5 5 0 0 1-5.02-4.9c0-2.7 2.2-4.9 5.02-4.9ZM21.48 41.7h-3.01v3.9h3.01v-3.9ZM27.4 41.7h-3v3.9h3v-3.9ZM21.48 47.7h-3.01v3.9h3.01v-3.9ZM27.4 47.7h-3v3.9h3v-3.9ZM53.5 41.7h-3v3.9h3v-3.9ZM59.43 41.7h-3.01v3.9h3.01v-3.9ZM53.5 47.7h-3v3.9h3v-3.9ZM59.43 47.7h-3.01v3.9h3.01v-3.9Z"/></svg>